<svg width="74" height="90" viewBox="0 0 74 90" fill="none" xmlns="http://www.w3.org/2000/svg">
<path d="M46.6535 79.5108H61.2892C62.0423 79.5108 62.6529 78.9009 62.6529 78.1472V68.6709C62.6529 67.9172 62.0423 67.3073 61.2892 67.3073H46.6535C45.9004 67.3073 45.2898 67.9172 45.2898 68.6709V78.1472C45.2898 78.9009 45.9004 79.5108 46.6535 79.5108ZM48.0171 70.0346H59.9256V76.7835H48.0171V70.0346ZM29.9789 67.2221H38.196C38.949 67.2221 39.5596 66.6122 39.5596 65.8584C39.5596 65.1047 38.949 64.4948 38.196 64.4948H29.9789C29.2258 64.4948 28.6152 65.1047 28.6152 65.8584C28.6152 66.6122 29.2258 67.2221 29.9789 67.2221ZM29.9789 74.7727H38.196C38.949 74.7727 39.5596 74.1628 39.5596 73.4091C39.5596 72.6553 38.949 72.0454 38.196 72.0454H29.9789C29.2258 72.0454 28.6152 72.6553 28.6152 73.4091C28.6152 74.1628 29.2258 74.7727 29.9789 74.7727ZM38.196 79.596H29.9789C29.2258 79.596 28.6152 80.2059 28.6152 80.9597C28.6152 81.7134 29.2258 82.3233 29.9789 82.3233H38.196C38.949 82.3233 39.5596 81.7134 39.5596 80.9597C39.5596 80.2059 38.949 79.596 38.196 79.596Z" fill="#3A3A3A"/>
<path d="M6.83533 37.8622C6.34793 37.8622 5.89783 38.1219 5.65413 38.544L0.182273 48.0216C-0.0607577 48.4437 -0.0607577 48.9631 0.182273 49.3852L5.14268 57.9769C5.13186 58.0462 5.10148 58.1085 5.10148 58.1809V88.6364C5.10148 89.3901 5.71206 90 6.46512 90H22.7802H69.3262C70.0793 90 70.6899 89.3901 70.6899 88.6364V58.1809C70.6899 57.4272 70.0793 56.8173 69.3262 56.8173H22.7802H20.1405L24.4314 49.3852C24.6745 48.9631 24.6745 48.4437 24.4314 48.0216L22.1422 44.0565L34.1325 20.9922C37.139 20.6569 39.7597 19.0478 41.4587 16.7219H48.4835V22.0712C48.4835 22.8249 49.0941 23.4348 49.8471 23.4348H56.086V30.1573C54.1815 30.6653 52.7675 32.388 52.7675 34.4505C52.7675 36.9101 54.7683 38.9102 57.228 38.9102H59.6176V46.2438C59.6176 46.9975 60.2282 47.6074 60.9813 47.6074C61.7343 47.6074 62.3449 46.9975 62.3449 46.2438V38.9102H64.7346C67.1942 38.9102 69.1951 36.9101 69.1951 34.4505C69.1951 32.388 67.7811 30.6653 65.8765 30.1573V23.4348H72.1154C72.8685 23.4348 73.4791 22.8249 73.4791 22.0712V1.36364C73.4791 0.609908 72.8685 0 72.1154 0H64.6487H57.3138H49.8471C49.0941 0 48.4835 0.609908 48.4835 1.36364V4.33594H41.4557C39.5385 1.7137 36.4487 0 32.9588 0C27.152 0 22.4279 4.72479 22.4279 10.5309C22.4279 12.2825 22.864 13.932 23.6239 15.3867L11.9443 37.8622H6.83533ZM67.9626 87.2727H24.1438V59.5446H67.9626V87.2727ZM21.4165 87.2727H7.82942V59.5446H17.7784H21.4165V87.2727ZM16.9914 56.8173H7.62235L2.93818 48.7034L7.62235 40.5895H16.9914L21.6755 48.7034L16.9914 56.8173ZM66.4678 34.4505C66.4678 35.4053 65.6901 36.183 64.7346 36.183H57.228C56.2725 36.183 55.4948 35.4053 55.4948 34.4505C55.4948 33.4957 56.2725 32.718 57.228 32.718H57.4497H64.5129H64.7346C65.6901 32.718 66.4678 33.4957 66.4678 34.4505ZM63.1492 29.9907H58.8133V23.4348H63.1492V29.9907ZM63.2851 2.72727V11.7707H58.6775V2.72727H63.2851ZM51.2108 2.72727H55.9502V13.1343C55.9502 13.8881 56.5608 14.498 57.3138 14.498H64.6487C65.4018 14.498 66.0124 13.8881 66.0124 13.1343V2.72727H70.7518V20.7076H64.5129H57.4497H51.2108V15.3582V5.69957V2.72727ZM48.4835 7.06321V13.9946H42.8923C43.2725 12.9079 43.4897 11.7456 43.4897 10.5309C43.4897 9.31474 43.272 8.15102 42.8909 7.06321H48.4835ZM32.9588 2.72727C37.2615 2.72727 40.7624 6.22825 40.7624 10.5309C40.7624 14.8335 37.2615 18.3345 32.9588 18.3345C28.6562 18.3345 25.1552 14.8335 25.1552 10.5309C25.1552 6.22825 28.6562 2.72727 32.9588 2.72727ZM25.4119 17.8593C26.9186 19.4105 28.8963 20.495 31.1129 20.8893L20.5251 41.2556L18.9596 38.544C18.7159 38.1219 18.2658 37.8622 17.7784 37.8622H15.0172L25.4119 17.8593Z" fill="#3A3A3A"/>
<path d="M12.3075 43.8615C9.63747 43.8615 7.46484 46.0334 7.46484 48.7034C7.46484 51.3734 9.63747 53.5454 12.3075 53.5454C14.9775 53.5454 17.1501 51.3734 17.1501 48.7034C17.1501 46.0334 14.9775 43.8615 12.3075 43.8615ZM12.3075 50.8181C11.1409 50.8181 10.1921 49.87 10.1921 48.7034C10.1921 47.5369 11.1409 46.5887 12.3075 46.5887C13.474 46.5887 14.4229 47.5369 14.4229 48.7034C14.4229 49.87 13.474 50.8181 12.3075 50.8181Z" fill="#3A3A3A"/>
</svg>
