<svg width="20" height="20" viewBox="0 0 20 20" fill="none" xmlns="http://www.w3.org/2000/svg">
<path fill-rule="evenodd" clip-rule="evenodd" d="M16.1963 11.9161L16.1977 11.9175C16.312 12.033 16.4456 12.1717 16.5593 12.316C16.6644 12.4495 16.8671 12.7267 16.9566 13.1217C17.0612 13.5834 16.9599 13.9596 16.8846 14.1658C16.8546 14.2481 16.822 14.3205 16.8095 14.3481L16.8018 14.3652C16.79 14.3915 16.7871 14.3978 16.7833 14.407L16.7813 14.4118C16.6444 14.7364 16.4779 15.0476 16.2839 15.3416L16.2803 15.3471C15.9111 15.9017 15.4776 16.3881 14.7678 16.7187C14.3793 16.8997 13.8264 17.0683 13.0533 16.9719C12.3553 16.8849 11.5693 16.5932 10.6323 16.0684C9.17295 15.25 8.12092 14.5184 6.79311 13.1943C5.47947 11.8845 4.80447 10.9905 3.90029 9.34805C2.97386 7.66517 2.76915 6.26569 3.2551 5.22734C3.58833 4.51532 4.08039 4.08386 4.62916 3.71929L4.63605 3.71471C4.93002 3.52158 5.24107 3.3558 5.56528 3.2194L5.57188 3.21662C5.58123 3.21274 5.58782 3.20981 5.61457 3.19783C5.6184 3.19611 5.62265 3.19421 5.62738 3.1921C5.62851 3.19159 5.62974 3.19104 5.63108 3.19044C5.65873 3.17805 5.73093 3.14569 5.81287 3.11593C6.01813 3.04137 6.39307 2.94065 6.85337 3.04444C7.24792 3.1334 7.5251 3.33523 7.65916 3.44051C7.80374 3.55405 7.9426 3.68745 8.0582 3.80163C8.39243 4.13105 8.72727 4.59719 8.97604 4.97546C9.23543 5.36987 9.4936 5.81083 9.65307 6.15291L9.65927 6.16624C9.72429 6.30601 9.80794 6.48584 9.8713 6.65666C9.93924 6.83978 10.0299 7.12842 10.0305 7.48023C10.0316 8.14973 9.69751 8.64958 9.52543 8.88527C9.53549 8.90169 9.54596 8.91851 9.55685 8.93572C9.7235 9.19903 9.95614 9.50193 10.2308 9.77567C10.5051 10.0491 10.8008 10.2734 11.0547 10.4315C11.0703 10.4413 11.0857 10.4507 11.1006 10.4597C11.3239 10.292 11.8435 9.93151 12.5235 9.93223C12.9029 9.93263 13.2084 10.0403 13.3909 10.1148C13.5533 10.1811 13.7271 10.2687 13.8594 10.3354C13.8687 10.3401 13.8778 10.3447 13.8866 10.3492C14.1898 10.502 14.6107 10.7448 15.0093 11.0027C15.3825 11.2441 15.86 11.5773 16.1963 11.9161ZM11.4216 14.659C10.0664 13.899 9.13932 13.2526 7.93372 12.0505C6.72811 10.8483 6.14563 10.0772 5.31541 8.56903C4.48518 7.0609 4.55741 6.25558 4.71817 5.91207C4.87893 5.56856 5.10882 5.33998 5.52303 5.06481C5.73457 4.92583 5.9584 4.80652 6.19171 4.70836C6.22278 4.69545 6.25048 4.68303 6.27574 4.6717C6.48352 4.57852 6.52651 4.55924 6.92305 4.95091C7.33881 5.35991 7.9609 6.34618 8.18897 6.83543C8.48151 7.46447 8.50739 7.54212 8.16515 8.00808C8.13282 8.05209 8.10085 8.09408 8.06991 8.13472C7.86845 8.39932 7.71068 8.60653 7.78227 8.93998C7.86485 9.32465 8.35595 10.1877 9.09039 10.9198C9.82483 11.6518 10.6636 12.116 11.0496 12.1983C11.3893 12.2707 11.5999 12.1098 11.8704 11.903C11.9072 11.8748 11.9452 11.8458 11.9847 11.8165C12.4791 11.4491 12.5309 11.475 13.16 11.7919C13.6431 12.0355 14.6387 12.6399 15.0498 13.0541C15.4423 13.4505 15.423 13.4933 15.3295 13.7005C15.3182 13.7257 15.3058 13.7532 15.2929 13.7841C15.1946 14.0172 15.075 14.2408 14.9356 14.4519C14.6599 14.8661 14.4303 15.0939 14.0857 15.2544C13.7412 15.4149 13.0981 15.5979 11.4216 14.659Z" fill="#252525"/>
</svg>
