<svg width="21" height="21" viewBox="0 0 21 21" fill="none" xmlns="http://www.w3.org/2000/svg">
<path d="M0.500555 15.4201V18.4201C0.499425 18.6986 0.556472 18.9743 0.668045 19.2294C0.779618 19.4846 0.943256 19.7137 1.14848 19.902C1.3537 20.0902 1.59598 20.2336 1.85981 20.3228C2.12363 20.412 2.40318 20.4452 2.68056 20.4201C5.75772 20.0857 8.71356 19.0342 11.3106 17.3501C13.7267 15.8148 15.7752 13.7663 17.3106 11.3501C19.0006 8.7413 20.0523 5.77109 20.3806 2.6801C20.4055 2.40356 20.3727 2.12486 20.2841 1.86172C20.1954 1.59859 20.053 1.35679 19.8658 1.15172C19.6786 0.94665 19.4508 0.782806 19.1968 0.670619C18.9428 0.558432 18.6682 0.500358 18.3906 0.500097H15.3906C14.9052 0.495321 14.4348 0.667176 14.0668 0.98363C13.6988 1.30008 13.4585 1.73954 13.3906 2.2201C13.2639 3.18016 13.0291 4.12282 12.6906 5.0301C12.556 5.38802 12.5269 5.77701 12.6066 6.15098C12.6864 6.52494 12.8717 6.86821 13.1406 7.1401L14.4106 8.4101C12.987 10.9136 10.9141 12.9865 8.41055 14.4101L7.14056 13.1401C6.86867 12.8712 6.5254 12.6859 6.15144 12.6062C5.77747 12.5264 5.38848 12.5556 5.03056 12.6901C4.12328 13.0286 3.18062 13.2635 2.22055 13.3901C1.73479 13.4586 1.29115 13.7033 0.974022 14.0776C0.656891 14.4519 0.488386 14.9297 0.500555 15.4201Z" stroke="#252525" stroke-linecap="round" stroke-linejoin="round"/>
</svg>
