<svg width="109" height="72" viewBox="0 0 109 72" fill="none" xmlns="http://www.w3.org/2000/svg">
<path d="M106.861 47.3003L101.562 45.5236V10.4925C101.562 9.46342 100.729 8.6282 99.6978 8.6282H93.0812C92.0503 8.6282 91.2169 9.46342 91.2169 10.4925V42.0559L88.8604 41.2655V10.4907C88.8604 9.46156 88.027 8.62633 86.996 8.62633H80.3962C79.3652 8.62633 78.5319 9.46156 78.5319 10.4907V37.7996L76.1623 37.0054V10.4907C76.1623 9.46156 75.3289 8.62633 74.2979 8.62633H67.6982C66.6672 8.62633 65.8338 9.46156 65.8338 10.4907V33.5415L62.9776 32.5832V22.7338C62.9776 22.1335 62.6887 21.5705 62.2021 21.22C61.7136 20.8695 61.0909 20.7744 60.5204 20.9664L39.2706 28.0994C38.8679 27.3612 38.3906 26.6881 37.8276 26.112C37.8854 25.3756 37.9152 24.6373 37.9152 23.9065C37.9152 18.2426 36.297 12.5284 32.682 12.5284C29.067 12.5284 27.4488 18.2426 27.4488 23.9065C27.4488 24.6448 27.4786 25.3831 27.5345 26.1139C27.2959 26.3581 27.0703 26.6191 26.8615 26.8951C26.8708 26.6751 26.8764 26.4532 26.8764 26.2314C26.8764 22.7488 25.577 19.4992 23.3565 17.3272C23.4423 16.3186 23.4833 15.2876 23.4833 14.2455C23.4833 7.38468 21.5295 0 17.2415 0C12.9479 0 10.9922 7.38468 10.9922 14.2455C10.9922 15.3026 11.0351 16.3373 11.1227 17.331C8.90225 19.5067 7.59908 22.7544 7.59908 26.2314C7.59908 26.9901 7.66246 27.7471 7.7911 28.4909C5.60982 30.2061 4.2619 33.1238 4.2619 36.3137C4.2619 37.479 4.45765 38.605 4.79883 39.664L1.26776 40.8497C0.510831 41.107 0 41.8192 0 42.619V69.7396C0 70.7687 0.833363 71.604 1.86435 71.604H106.268C107.299 71.604 108.132 70.7687 108.132 69.7396V49.0677C108.132 48.2661 107.621 47.5539 106.861 47.3003ZM82.2624 19.9373H85.1335V40.0107L82.2624 39.0469V19.9373ZM85.1335 12.355V16.2086H82.2624V12.355H85.1335ZM69.5644 19.9373H72.4355V35.7526L69.5644 34.785V19.9373ZM72.4355 12.355V16.2086H69.5644V12.355H72.4355ZM10.7368 31.0115C11.5291 30.6088 11.9262 29.7046 11.6876 28.8489C11.4508 27.9988 11.3315 27.1188 11.3315 26.2314C11.3315 23.487 12.4165 20.9907 14.2362 19.5533C14.7451 19.1506 15.008 18.5111 14.9316 17.8679C14.7936 16.7269 14.7246 15.5076 14.7246 14.2455C14.7246 7.56179 16.5796 4.00648 17.1725 3.71751C17.9089 4.00648 19.7583 7.56179 19.7583 14.2455C19.7583 15.4871 19.6912 16.7101 19.5589 17.8828C19.488 18.5223 19.7509 19.1562 20.2561 19.5551C22.0701 20.9888 23.1515 23.4833 23.1515 26.2332C23.1515 27.1468 23.034 28.0305 22.8028 28.8582C22.5642 29.7121 22.9594 30.6144 23.7499 31.019C24.3223 31.3117 24.8499 31.7778 25.2824 32.3725C25.3029 32.4061 25.3234 32.4396 25.3477 32.4713C25.4036 32.5515 25.4595 32.6335 25.5117 32.7193L8.31685 38.4838C8.10618 37.8071 7.99618 37.0763 7.99618 36.3175C7.99245 33.9777 9.09615 31.8468 10.7368 31.0115ZM29.1043 31.5093C29.0279 31.3583 28.9496 31.211 28.8675 31.0675C29.2106 29.9377 29.8351 28.9626 30.6349 28.3287C31.1402 27.9298 31.4012 27.2978 31.3303 26.6583C31.2259 25.756 31.1756 24.8312 31.1756 23.9084C31.1756 19.9019 32.0929 17.344 32.6839 16.4846C33.2693 17.3403 34.1847 19.8963 34.1847 23.9084C34.1847 24.82 34.1325 25.7448 34.0281 26.6583C33.9572 27.2996 34.2219 27.9335 34.7291 28.3325C35.0702 28.6009 35.3816 28.9328 35.6519 29.3131L31.6007 30.6722L29.1043 31.5093ZM59.2489 67.8771H3.72869V43.9594L59.2489 25.3272V67.8771ZM97.8353 12.355V16.2086H94.9475V12.355H97.8353ZM94.9475 19.9373H97.8353V44.2726L94.9475 43.3032V19.9373ZM104.403 67.8771H62.9776V36.517L104.403 50.4082V67.8771Z" fill="#3A3A3A"/>
<path d="M71.5701 51.6106H65.9883V56.8196H71.5701V51.6106Z" fill="#3A3A3A"/>
<path d="M79.0382 51.6106H73.4414V56.8196H79.0382V51.6106Z" fill="#3A3A3A"/>
<path d="M86.4893 51.6106H80.8906V56.8196H86.4893V51.6106Z" fill="#3A3A3A"/>
<path d="M93.9374 51.6106H88.3574V56.8196H93.9374V51.6106Z" fill="#3A3A3A"/>
<path d="M101.405 51.6106H95.8066V56.8196H101.405V51.6106Z" fill="#3A3A3A"/>
<path d="M71.5701 59.0679H65.9883V64.2769H71.5701V59.0679Z" fill="#3A3A3A"/>
<path d="M79.0382 59.0679H73.4414V64.2769H79.0382V59.0679Z" fill="#3A3A3A"/>
<path d="M86.4893 59.0679H80.8906V64.2769H86.4893V59.0679Z" fill="#3A3A3A"/>
<path d="M93.9374 59.0679H88.3574V64.2769H93.9374V59.0679Z" fill="#3A3A3A"/>
<path d="M101.405 59.0679H95.8066V64.2769H101.405V59.0679Z" fill="#3A3A3A"/>
<path d="M23.0976 51.6106H17.5176V56.8196H23.0976V51.6106Z" fill="#3A3A3A"/>
<path d="M15.6475 51.6106H10.0508V56.8196H15.6475V51.6106Z" fill="#3A3A3A"/>
<path d="M30.5636 51.6106H24.9668V56.8196H30.5636V51.6106Z" fill="#3A3A3A"/>
<path d="M38.0097 51.6106H32.4297V56.8196H38.0097V51.6106Z" fill="#3A3A3A"/>
<path d="M45.4664 51.6106H39.8789V56.8196H45.4664V51.6106Z" fill="#3A3A3A"/>
<path d="M52.9253 51.6106H47.3379V56.8196H52.9253V51.6106Z" fill="#3A3A3A"/>
<path d="M23.0976 59.0679H17.5176V64.2769H23.0976V59.0679Z" fill="#3A3A3A"/>
<path d="M15.6475 59.0679H10.0508V64.2769H15.6475V59.0679Z" fill="#3A3A3A"/>
<path d="M30.5636 59.0679H24.9668V64.2769H30.5636V59.0679Z" fill="#3A3A3A"/>
<path d="M38.0097 59.0679H32.4297V64.2769H38.0097V59.0679Z" fill="#3A3A3A"/>
<path d="M45.4664 59.0679H39.8789V64.2769H45.4664V59.0679Z" fill="#3A3A3A"/>
<path d="M52.9253 59.0679H47.3379V64.2769H52.9253V59.0679Z" fill="#3A3A3A"/>
</svg>
