<svg width="512" height="512" viewBox="0 0 512 512" fill="none" xmlns="http://www.w3.org/2000/svg">
<rect width="512" height="512" rx="256" fill="#3D8BFD"/>
<path fill-rule="evenodd" clip-rule="evenodd" d="M214.614 336.942C213.32 349.882 197.785 357.453 175.778 357.453C153.771 357.453 136.295 347.101 135 334.161V330.926V226.111C135 204.76 146.004 187.291 167.363 173.704C188.723 159.47 217.85 153 254.098 153C285.167 153 312.352 160.117 335.006 173.704C357.661 187.291 369.312 203.466 369.312 222.876C369.312 243.58 357.661 260.402 335.006 273.989C334.009 274.488 333.012 275.082 331.978 275.698C330.327 276.682 328.582 277.723 326.592 278.518L364.133 314.751L370.606 321.221C381.61 332.22 375.137 347.101 357.013 354.218C338.89 361.335 314.294 358.1 301.996 347.101L299.406 345.16L297.522 343.333C276.753 323.201 255.393 302.496 234.032 282.4C232.738 281.106 231.443 279.812 230.796 278.518C229.501 275.93 228.207 273.342 228.207 270.754C228.207 268.813 228.854 266.225 229.501 264.284C230.149 262.343 231.443 261.049 233.385 259.108C238.563 253.285 248.272 249.403 259.276 248.109C259.599 248.109 260.085 247.948 260.57 247.786C261.056 247.624 261.541 247.462 261.865 247.462C267.69 246.168 273.516 244.227 278.047 241.639C284.519 237.11 288.403 231.287 288.403 224.817C288.403 217.7 285.814 212.524 279.988 207.995C273.516 202.819 263.807 200.878 250.861 200.878C241.152 200.878 232.738 203.466 225.618 207.995C218.498 212.524 214.614 218.994 214.614 227.405V332.22C214.614 335.532 214.614 336.295 214.614 336.942Z" fill="white"/>
</svg>
