<svg width="221" height="25" viewBox="0 0 221 25" fill="none" xmlns="http://www.w3.org/2000/svg">
<g clip-path="url(#clip0_1825_7302)">
<g clip-path="url(#clip1_1825_7302)">
<path fill-rule="evenodd" clip-rule="evenodd" d="M30.0488 12.6965C30.0488 9.2521 32.0204 6.33762 35.9635 3.95305C39.9066 1.56847 44.6316 0.38398 50.1385 0.399566C55.7129 0.399566 60.443 1.61004 64.329 4.03097C68.215 6.45191 70.1684 9.34042 70.1891 12.6965C70.1891 16.1201 68.2773 19.0346 64.4537 21.4399C60.643 23.8479 55.8817 25.0479 50.154 25.0479C45.1981 25.1802 40.3024 23.9367 36.0103 21.4555C32.036 19.0813 30.0488 16.1616 30.0488 12.6965ZM40.0391 12.6965C40.0391 14.481 41.0132 16.0084 42.9692 17.263C45.1236 18.578 47.6158 19.2336 50.1385 19.1489C52.649 19.2321 55.1294 18.5822 57.2766 17.2786C59.2092 16.0318 60.1833 14.5044 60.1833 12.6965C60.1833 10.8886 59.2092 9.39237 57.2766 8.14553C55.1301 6.83958 52.6497 6.18699 50.1385 6.26749C47.6206 6.18815 45.1327 6.83176 42.9692 8.12215C41.0158 9.3586 40.0391 10.8834 40.0391 12.6965Z" fill="#252525"/>
<path fill-rule="evenodd" clip-rule="evenodd" d="M132.585 22.3053C132.585 23.9028 130.41 24.9626 127.776 24.9626C125.143 24.9626 123.101 23.8249 122.929 22.2975V10.3591C122.9 8.87551 123.264 7.41061 123.984 6.11311C124.704 4.81562 125.754 3.73175 127.028 2.97155C129.761 1.14286 133.351 0.228516 137.798 0.228516C142.245 0.228516 145.845 1.12728 148.599 2.9248C149.879 3.6842 150.936 4.76923 151.662 6.06955C152.387 7.36988 152.755 8.83912 152.729 10.3279V22.0481C152.729 23.6612 150.742 24.9782 148.053 24.9782C145.365 24.9782 143.042 23.9262 143.042 22.3131C143.042 18.1206 143.042 13.9333 143.042 9.75122C143.054 9.21389 142.931 8.68225 142.684 8.20458C142.438 7.7269 142.076 7.31833 141.632 7.01598C140.474 6.27116 139.11 5.91366 137.736 5.99513C134.26 5.99513 132.522 7.33288 132.522 10.0084L132.585 22.3053Z" fill="#252525"/>
<path fill-rule="evenodd" clip-rule="evenodd" d="M9.81117 22.282C9.63194 23.8405 7.55908 25.1107 4.94072 25.1107C2.32237 25.1107 0.179371 23.8561 0.0546875 22.282C0.0546875 22.1495 0.0546875 22.0404 0.0546875 21.9079V9.2837C0.0546875 6.73808 1.35347 4.62106 3.95105 2.93263C6.54862 1.24421 10.0268 0.4 14.3855 0.4C17.8075 0.31362 21.1877 1.16808 24.1576 2.87029C26.9162 4.51196 28.2929 6.48352 28.2877 8.78497C28.2877 11.2631 26.911 13.3255 24.1576 14.9724C23.8381 15.1594 23.503 15.3386 23.1601 15.5101L27.6877 19.8662L28.4669 20.6455C29.7527 22.0092 29.0436 23.7626 26.8305 24.612C24.6173 25.4614 21.6951 25.0795 20.2145 23.7937L19.9339 23.5288C17.3312 21.004 14.6894 18.4791 12.0866 15.9543C11.93 15.8067 11.7938 15.639 11.6814 15.4555C11.5158 15.2012 11.4181 14.9086 11.3976 14.6058C11.3772 14.3029 11.4346 13.9999 11.5645 13.7256C11.6775 13.4968 11.8246 13.2865 12.0009 13.1021C12.8594 12.3159 13.9572 11.8411 15.118 11.754L15.4375 11.6917C16.1299 11.5869 16.7932 11.3402 17.3857 10.9669C17.7503 10.7693 18.0558 10.4782 18.2708 10.1235C18.4858 9.76882 18.6026 9.36332 18.6092 8.94861C18.6197 8.55915 18.536 8.17291 18.365 7.82282C18.194 7.47274 17.9409 7.1692 17.6273 6.93809C16.5974 6.26908 15.3763 5.95695 14.1517 6.04972C13.0763 6.02958 12.0189 6.32781 11.1126 6.90692C10.7088 7.14728 10.3758 7.49012 10.1472 7.90068C9.91868 8.31124 9.80275 8.77493 9.81117 9.24474V22.0482C9.81819 22.1259 9.81819 22.2042 9.81117 22.282Z" fill="#252525"/>
<path fill-rule="evenodd" clip-rule="evenodd" d="M157.281 3.34508V3.06454C157.468 1.52938 159.572 0.313711 162.144 0.313711C163.704 0.234644 165.232 0.778432 166.391 1.8255L177.371 12.3924V3.04116C177.605 1.55275 179.709 0.391638 182.21 0.391638C184.711 0.391638 186.847 1.59172 187.034 3.10351C187.034 3.23598 187.034 3.37625 187.034 3.51652V22.2191C186.998 22.656 186.848 23.0758 186.599 23.4368C186.35 23.7977 186.011 24.0872 185.615 24.2763C185.201 24.523 184.755 24.7143 184.291 24.8452C183.609 25.0414 182.904 25.1437 182.194 25.1491C181.607 25.1597 181.021 25.0969 180.449 24.9621C179.909 24.8803 179.394 24.6837 178.937 24.3854L166.999 13.8575V22.3204C166.835 23.8789 164.715 25.0712 162.144 25.0712C159.572 25.0712 157.39 23.8477 157.227 22.3204L157.281 3.34508Z" fill="#252525"/>
<path fill-rule="evenodd" clip-rule="evenodd" d="M118.931 22.3359V8.92462C118.963 7.57746 118.615 6.24856 117.926 5.09063C117.236 3.9327 116.234 2.99273 115.035 2.37873C112.671 0.996821 109.362 0.305867 105.107 0.305867C101.908 0.268163 98.7636 1.13531 96.0362 2.80733C93.3112 1.13633 90.1695 0.269211 86.9732 0.305867C82.6924 0.305867 79.3623 0.986431 76.983 2.34756C75.783 2.94229 74.7784 3.86816 74.0879 5.01572C73.3975 6.16328 73.05 7.48454 73.0866 8.82331V22.2969C73.1801 23.8555 75.2452 25.0711 77.8324 25.0711C80.4196 25.0711 82.5937 23.7775 82.5937 22.1878V9.35322C82.5937 7.14008 84.0432 6.03352 86.9421 6.03352C89.841 6.03352 91.2878 7.14008 91.2826 9.35322V22.1722C91.2826 23.7308 93.4412 25.04 96.0128 25.04C98.5844 25.04 100.634 23.8165 100.743 22.2969V9.35322C100.743 7.14008 102.192 6.03352 105.091 6.03352C107.99 6.03352 109.437 7.14008 109.432 9.35322V22.2969C109.541 23.8555 111.622 25.0478 114.17 25.0478C116.718 25.0478 118.83 23.8633 118.931 22.3359Z" fill="#252525"/>
<path fill-rule="evenodd" clip-rule="evenodd" d="M200.795 22.4064C200.795 24.0039 198.621 25.0715 195.987 25.0715C193.353 25.0715 191.311 23.926 191.148 22.3986V10.429C191.121 8.94703 191.487 7.48435 192.206 6.18863C192.926 4.89291 193.975 3.81001 195.247 3.04927C197.974 1.24136 201.561 0.337402 206.009 0.337402C210.456 0.337402 214.056 1.23616 216.809 3.03368C218.091 3.78999 219.149 4.87327 219.875 6.17267C220.6 7.47207 220.968 8.94094 220.939 10.429V22.1181C220.939 23.7389 218.952 25.0559 216.264 25.0559C213.575 25.0559 211.261 24.0039 211.261 22.383C211.261 18.1957 211.261 14.0084 211.261 9.82114C211.261 6.96901 208.378 6.07284 205.993 6.07284C202.517 6.07284 200.78 7.41059 200.78 10.0861L200.795 22.4064Z" fill="#252525"/>
<path fill-rule="evenodd" clip-rule="evenodd" d="M206.009 11.761C207.236 11.725 208.429 12.1731 209.328 13.0086C210.228 13.844 210.763 14.9998 210.817 16.2263C210.732 17.4445 210.189 18.5852 209.295 19.4182C208.402 20.2511 207.227 20.7144 206.005 20.7144C204.784 20.7144 203.608 20.2511 202.715 19.4182C201.822 18.5852 201.278 17.4445 201.193 16.2263C201.248 14.9984 201.784 13.8414 202.685 13.0058C203.587 12.1701 204.781 11.7229 206.009 11.761Z" fill="#252525"/>
<path fill-rule="evenodd" clip-rule="evenodd" d="M137.8 11.7308C139.027 11.6948 140.22 12.1429 141.119 12.9783C142.019 13.8138 142.554 14.9695 142.608 16.196C142.523 17.4143 141.98 18.555 141.086 19.3879C140.193 20.2209 139.018 20.6841 137.796 20.6841C136.575 20.6841 135.399 20.2209 134.506 19.3879C133.613 18.555 133.069 17.4143 132.984 16.196C133.039 14.9681 133.575 13.8112 134.476 12.9755C135.378 12.1398 136.572 11.6927 137.8 11.7308Z" fill="#252525"/>
</g>
</g>
<defs>
<clipPath id="clip0_1825_7302">
<rect width="221" height="25" fill="white"/>
</clipPath>
<clipPath id="clip1_1825_7302">
<rect width="220.892" height="24.8946" fill="white" transform="translate(0.0546875 0.222168)"/>
</clipPath>
</defs>
</svg>
