<svg width="20" height="20" viewBox="0 0 20 20" fill="none" xmlns="http://www.w3.org/2000/svg">
<path fill-rule="evenodd" clip-rule="evenodd" d="M4.44828 6.91304C4.44828 6.64891 4.66441 6.43478 4.93103 6.43478H15.069C15.3356 6.43478 15.5517 6.64891 15.5517 6.91304V14.087C15.5517 14.3511 15.3356 14.5652 15.069 14.5652H4.93103C4.66441 14.5652 4.44828 14.3511 4.44828 14.087V6.91304ZM4.93103 5C3.86455 5 3 5.8565 3 6.91304V14.087C3 15.1435 3.86455 16 4.93103 16H15.069C16.1354 16 17 15.1435 17 14.087V6.91304C17 5.8565 16.1354 5 15.069 5H4.93103ZM6.13627 7.09426C5.83736 6.83103 5.37965 6.85771 5.11395 7.15383C4.84825 7.44996 4.87518 7.9034 5.17409 8.16663L9.51892 11.9927C9.79328 12.2343 10.2067 12.2343 10.4811 11.9927L14.8259 8.16663C15.1248 7.9034 15.1518 7.44996 14.8861 7.15383C14.6204 6.85771 14.1627 6.83103 13.8637 7.09426L10 10.4967L6.13627 7.09426Z" fill="#252525"/>
</svg>
