<svg width="90" height="90" viewBox="0 0 90 90" fill="none" xmlns="http://www.w3.org/2000/svg">
<path d="M77.3438 67.5H71.7188V57.6562C71.7188 57.2833 71.5706 56.9256 71.3069 56.6619C71.0431 56.3982 70.6855 56.25 70.3125 56.25H59.0625C58.6895 56.25 58.3319 56.3982 58.0681 56.6619C57.8044 56.9256 57.6562 57.2833 57.6562 57.6562V67.5H52.0312V57.6562C52.0312 57.2833 51.8831 56.9256 51.6194 56.6619C51.3556 56.3982 50.998 56.25 50.625 56.25H39.375C39.002 56.25 38.6444 56.3982 38.3806 56.6619C38.1169 56.9256 37.9688 57.2833 37.9688 57.6562V67.5H30.9375V57.6562C30.9375 57.2833 30.7893 56.9256 30.5256 56.6619C30.2619 56.3982 29.9042 56.25 29.5312 56.25H18.2812C17.9083 56.25 17.5506 56.3982 17.2869 56.6619C17.0232 56.9256 16.875 57.2833 16.875 57.6562V67.5H12.6562C10.0455 67.5 7.54173 68.5371 5.69567 70.3832C3.84961 72.2292 2.8125 74.733 2.8125 77.3438C2.8125 79.9545 3.84961 82.4583 5.69567 84.3043C7.54173 86.1504 10.0455 87.1875 12.6562 87.1875H77.3438C79.9545 87.1875 82.4583 86.1504 84.3043 84.3043C86.1504 82.4583 87.1875 79.9545 87.1875 77.3438C87.1875 74.733 86.1504 72.2292 84.3043 70.3832C82.4583 68.5371 79.9545 67.5 77.3438 67.5ZM60.4688 59.0625H63.2812V61.875H66.0938V59.0625H68.9062V67.5H60.4688V59.0625ZM40.7812 59.0625H43.5938V61.875H46.4062V59.0625H49.2188V67.5H40.7812V59.0625ZM19.6875 59.0625H22.5V61.875H25.3125V59.0625H28.125V67.5H19.6875V59.0625ZM77.3438 84.375H12.6562C10.7914 84.375 9.00302 83.6342 7.68441 82.3156C6.36579 80.997 5.625 79.2086 5.625 77.3438C5.625 75.4789 6.36579 73.6905 7.68441 72.3719C9.00302 71.0533 10.7914 70.3125 12.6562 70.3125H77.3438C79.2086 70.3125 80.997 71.0533 82.3156 72.3719C83.6342 73.6905 84.375 75.4789 84.375 77.3438C84.375 79.2086 83.6342 80.997 82.3156 82.3156C80.997 83.6342 79.2086 84.375 77.3438 84.375Z" fill="#3A3A3A"/>
<path d="M16.875 73.125C16.0406 73.125 15.225 73.3724 14.5312 73.836C13.8374 74.2996 13.2967 74.9584 12.9774 75.7293C12.6581 76.5002 12.5745 77.3484 12.7373 78.1668C12.9001 78.9851 13.3019 79.7369 13.8919 80.3269C14.4819 80.9169 15.2336 81.3187 16.052 81.4814C16.8703 81.6442 17.7186 81.5607 18.4894 81.2414C19.2603 80.9221 19.9192 80.3813 20.3828 79.6876C20.8463 78.9938 21.0938 78.1781 21.0938 77.3438C21.0938 76.2249 20.6493 75.1518 19.8581 74.3606C19.0669 73.5695 17.9939 73.125 16.875 73.125ZM16.875 78.75C16.5969 78.75 16.325 78.6675 16.0937 78.513C15.8625 78.3585 15.6822 78.1389 15.5758 77.8819C15.4694 77.6249 15.4415 77.3422 15.4958 77.0694C15.55 76.7966 15.684 76.5461 15.8806 76.3494C16.0773 76.1527 16.3279 76.0188 16.6007 75.9645C16.8734 75.9103 17.1562 75.9381 17.4132 76.0445C17.6701 76.151 17.8897 76.3312 18.0443 76.5625C18.1988 76.7937 18.2813 77.0656 18.2813 77.3438C18.2813 77.7167 18.1331 78.0744 17.8694 78.3381C17.6056 78.6018 17.248 78.75 16.875 78.75ZM30.9375 73.125C30.1031 73.125 29.2875 73.3724 28.5937 73.836C27.8999 74.2996 27.3592 74.9584 27.0399 75.7293C26.7206 76.5002 26.637 77.3484 26.7998 78.1668C26.9626 78.9851 27.3644 79.7369 27.9544 80.3269C28.5444 80.9169 29.2961 81.3187 30.1145 81.4814C30.9328 81.6442 31.7811 81.5607 32.5519 81.2414C33.3228 80.9221 33.9817 80.3813 34.4453 79.6876C34.9088 78.9938 35.1563 78.1781 35.1563 77.3438C35.1563 76.2249 34.7118 75.1518 33.9206 74.3606C33.1294 73.5695 32.0564 73.125 30.9375 73.125ZM30.9375 78.75C30.6594 78.75 30.3875 78.6675 30.1562 78.513C29.925 78.3585 29.7447 78.1389 29.6383 77.8819C29.5319 77.6249 29.504 77.3422 29.5583 77.0694C29.6125 76.7966 29.7465 76.5461 29.9431 76.3494C30.1398 76.1527 30.3904 76.0188 30.6632 75.9645C30.9359 75.9103 31.2187 75.9381 31.4757 76.0445C31.7326 76.151 31.9522 76.3312 32.1068 76.5625C32.2613 76.7937 32.3438 77.0656 32.3438 77.3438C32.3438 77.7167 32.1956 78.0744 31.9319 78.3381C31.6681 78.6018 31.3105 78.75 30.9375 78.75ZM45 73.125C44.1656 73.125 43.35 73.3724 42.6562 73.836C41.9624 74.2996 41.4217 74.9584 41.1024 75.7293C40.7831 76.5002 40.6995 77.3484 40.8623 78.1668C41.0251 78.9851 41.4269 79.7369 42.0169 80.3269C42.6069 80.9169 43.3586 81.3187 44.177 81.4814C44.9953 81.6442 45.8436 81.5607 46.6144 81.2414C47.3853 80.9221 48.0442 80.3813 48.5078 79.6876C48.9713 78.9938 49.2188 78.1781 49.2188 77.3438C49.2188 76.2249 48.7743 75.1518 47.9831 74.3606C47.1919 73.5695 46.1189 73.125 45 73.125ZM45 78.75C44.7219 78.75 44.45 78.6675 44.2187 78.513C43.9875 78.3585 43.8072 78.1389 43.7008 77.8819C43.5944 77.6249 43.5665 77.3422 43.6208 77.0694C43.675 76.7966 43.809 76.5461 44.0056 76.3494C44.2023 76.1527 44.4529 76.0188 44.7257 75.9645C44.9984 75.9103 45.2812 75.9381 45.5382 76.0445C45.7951 76.151 46.0147 76.3312 46.1693 76.5625C46.3238 76.7937 46.4063 77.0656 46.4063 77.3438C46.4063 77.7167 46.2581 78.0744 45.9944 78.3381C45.7306 78.6018 45.373 78.75 45 78.75ZM59.0625 73.125C58.2281 73.125 57.4125 73.3724 56.7187 73.836C56.0249 74.2996 55.4842 74.9584 55.1649 75.7293C54.8456 76.5002 54.762 77.3484 54.9248 78.1668C55.0876 78.9851 55.4894 79.7369 56.0794 80.3269C56.6694 80.9169 57.4211 81.3187 58.2395 81.4814C59.0578 81.6442 59.9061 81.5607 60.6769 81.2414C61.4478 80.9221 62.1067 80.3813 62.5703 79.6876C63.0338 78.9938 63.2812 78.1781 63.2812 77.3438C63.2812 76.2249 62.8368 75.1518 62.0456 74.3606C61.2544 73.5695 60.1814 73.125 59.0625 73.125ZM59.0625 78.75C58.7844 78.75 58.5125 78.6675 58.2812 78.513C58.05 78.3585 57.8697 78.1389 57.7633 77.8819C57.6569 77.6249 57.629 77.3422 57.6833 77.0694C57.7375 76.7966 57.8715 76.5461 58.0681 76.3494C58.2648 76.1527 58.5154 76.0188 58.7882 75.9645C59.0609 75.9103 59.3437 75.9381 59.6006 76.0445C59.8576 76.151 60.0772 76.3312 60.2318 76.5625C60.3863 76.7937 60.4688 77.0656 60.4688 77.3438C60.4688 77.7167 60.3206 78.0744 60.0569 78.3381C59.7931 78.6018 59.4355 78.75 59.0625 78.75ZM73.125 73.125C72.2906 73.125 71.475 73.3724 70.7812 73.836C70.0874 74.2996 69.5467 74.9584 69.2274 75.7293C68.9081 76.5002 68.8245 77.3484 68.9873 78.1668C69.1501 78.9851 69.5519 79.7369 70.1419 80.3269C70.7319 80.9169 71.4836 81.3187 72.302 81.4814C73.1203 81.6442 73.9686 81.5607 74.7394 81.2414C75.5103 80.9221 76.1692 80.3813 76.6328 79.6876C77.0963 78.9938 77.3438 78.1781 77.3438 77.3438C77.3438 76.2249 76.8993 75.1518 76.1081 74.3606C75.3169 73.5695 74.2439 73.125 73.125 73.125ZM73.125 78.75C72.8469 78.75 72.575 78.6675 72.3437 78.513C72.1125 78.3585 71.9322 78.1389 71.8258 77.8819C71.7194 77.6249 71.6915 77.3422 71.7458 77.0694C71.8 76.7966 71.934 76.5461 72.1306 76.3494C72.3273 76.1527 72.5779 76.0188 72.8507 75.9645C73.1234 75.9103 73.4062 75.9381 73.6631 76.0445C73.9201 76.151 74.1397 76.3312 74.2943 76.5625C74.4488 76.7937 74.5312 77.0656 74.5312 77.3438C74.5312 77.7167 74.3831 78.0744 74.1194 78.3381C73.8556 78.6018 73.498 78.75 73.125 78.75ZM59.0625 19.6875V14.0625C59.0625 13.749 58.9577 13.4445 58.7649 13.1974C58.572 12.9502 58.3021 12.7746 57.998 12.6984L56.1797 12.2442L57.1444 10.6369C57.3054 10.3679 57.372 10.0529 57.3335 9.74184C57.295 9.43075 57.1537 9.14144 56.932 8.91984L52.9552 4.94297C52.7335 4.72094 52.4439 4.57943 52.1325 4.54095C51.8211 4.50248 51.5058 4.56924 51.2367 4.73063L49.6308 5.69531L49.1766 3.87844C49.1007 3.57408 48.9252 3.30384 48.678 3.11069C48.4308 2.91755 48.1262 2.81259 47.8125 2.8125H42.1875C41.8738 2.81259 41.5692 2.91755 41.322 3.11069C41.0748 3.30384 40.8994 3.57408 40.8234 3.87844L40.3692 5.69531L38.7633 4.73063C38.4942 4.56924 38.1789 4.50248 37.8675 4.54095C37.5561 4.57943 37.2665 4.72094 37.0448 4.94297L33.068 8.91984C32.8463 9.14144 32.705 9.43075 32.6665 9.74184C32.628 10.0529 32.6946 10.3679 32.8556 10.6369L33.8203 12.2442L32.002 12.6984C31.6979 12.7746 31.428 12.9502 31.2351 13.1974C31.0423 13.4445 30.9375 13.749 30.9375 14.0625V19.6875C30.9375 20.001 31.0423 20.3055 31.2351 20.5526C31.428 20.7998 31.6979 20.9754 32.002 21.0516L33.8189 21.5058L32.8556 23.1117C32.6946 23.3806 32.628 23.6957 32.6665 24.0068C32.705 24.3178 32.8463 24.6072 33.068 24.8288L37.0448 28.807C37.2665 29.0291 37.5561 29.1706 37.8675 29.209C38.1789 29.2475 38.4942 29.1808 38.7633 29.0194L40.3692 28.0547L40.8234 29.8716C40.8994 30.1759 41.0748 30.4462 41.322 30.6393C41.5692 30.8325 41.8738 30.9374 42.1875 30.9375H43.5938V34.0088C42.774 34.2986 42.0639 34.8345 41.5604 35.5434C41.057 36.2522 40.7849 37.0993 40.7813 37.9688V40.3594L38.205 44.2238C38.0678 44.4296 37.9874 44.6681 37.9719 44.915C37.9563 45.1619 38.0062 45.4085 38.1164 45.63L40.9289 51.255C41.0956 51.5888 41.3881 51.8427 41.742 51.9608C42.0959 52.079 42.4823 52.0517 42.8161 51.885C43.1499 51.7183 43.4038 51.4258 43.5219 51.0719C43.6401 50.718 43.6128 50.3316 43.4461 49.9978L40.9978 45.1027L42.9398 42.1875H47.0602L49.0022 45.1012L46.5469 49.9964C46.3802 50.3302 46.3529 50.7166 46.471 51.0705C46.5892 51.4244 46.8431 51.7169 47.1769 51.8836C47.5107 52.0503 47.897 52.0776 48.2509 51.9594C48.6049 51.8413 48.8974 51.5874 49.0641 51.2536L51.8766 45.6286C51.9868 45.4071 52.0367 45.1605 52.0211 44.9136C52.0055 44.6667 51.9251 44.4282 51.788 44.2223L49.2188 40.3594V37.9688C49.2151 37.0993 48.943 36.2522 48.4396 35.5434C47.9361 34.8345 47.226 34.2986 46.4063 34.0088V30.9375H47.8125C48.1262 30.9374 48.4308 30.8325 48.678 30.6393C48.9252 30.4462 49.1007 30.1759 49.1766 29.8716L49.6308 28.0547L51.2367 29.0194C51.5058 29.1808 51.8211 29.2475 52.1325 29.209C52.4439 29.1706 52.7335 29.0291 52.9552 28.807L56.932 24.8288C57.1537 24.6072 57.295 24.3178 57.3335 24.0068C57.372 23.6957 57.3054 23.3806 57.1444 23.1117L56.1811 21.5058L57.998 21.0516C58.3021 20.9754 58.572 20.7998 58.7649 20.5526C58.9577 20.3055 59.0625 20.001 59.0625 19.6875ZM46.4063 39.375H43.5938V37.9688C43.5938 37.5958 43.7419 37.2381 44.0056 36.9744C44.2694 36.7107 44.627 36.5625 45 36.5625C45.373 36.5625 45.7306 36.7107 45.9944 36.9744C46.2581 37.2381 46.4063 37.5958 46.4063 37.9688V39.375ZM56.25 18.5892L53.6569 19.2389C53.4439 19.2922 53.2463 19.3947 53.08 19.5381C52.9137 19.6815 52.7833 19.8618 52.6992 20.0647C52.6152 20.2675 52.5798 20.4873 52.5959 20.7063C52.612 20.9252 52.6792 21.1374 52.792 21.3258L54.1673 23.6166L51.75 26.0423L49.4578 24.667C49.2694 24.5539 49.0571 24.4865 48.8379 24.4702C48.6188 24.454 48.3988 24.4893 48.1958 24.5734C47.9928 24.6575 47.8123 24.788 47.6688 24.9544C47.5253 25.1209 47.4228 25.3187 47.3695 25.5319L46.7142 28.125H43.2858L42.6375 25.5319C42.5843 25.3187 42.4818 25.1209 42.3383 24.9544C42.1948 24.788 42.0143 24.6575 41.8112 24.5734C41.6082 24.4893 41.3883 24.454 41.1691 24.4702C40.9499 24.4865 40.7376 24.5539 40.5492 24.667L38.257 26.0423L35.8327 23.6166L37.208 21.3258C37.3208 21.1374 37.388 20.9252 37.4041 20.7063C37.4202 20.4873 37.3848 20.2675 37.3008 20.0647C37.2167 19.8618 37.0863 19.6815 36.92 19.5381C36.7537 19.3947 36.5561 19.2922 36.3431 19.2389L33.75 18.5892V15.1608L36.3431 14.5111C36.5561 14.4578 36.7537 14.3553 36.92 14.2119C37.0863 14.0685 37.2167 13.8882 37.3008 13.6853C37.3848 13.4825 37.4202 13.2627 37.4041 13.0437C37.388 12.8248 37.3208 12.6126 37.208 12.4242L35.8327 10.132L38.257 7.70625L40.5492 9.08297C40.7376 9.19611 40.9499 9.26351 41.1691 9.27977C41.3883 9.29603 41.6082 9.2607 41.8112 9.17662C42.0143 9.09253 42.1948 8.96202 42.3383 8.79557C42.4818 8.62911 42.5843 8.43134 42.6375 8.21812L43.2858 5.625H46.7142L47.3625 8.21812C47.4158 8.43134 47.5182 8.62911 47.6617 8.79557C47.8052 8.96202 47.9857 9.09253 48.1888 9.17662C48.3918 9.2607 48.6117 9.29603 48.8309 9.27977C49.0501 9.26351 49.2624 9.19611 49.4508 9.08297L51.75 7.70625L54.1744 10.132L52.7991 12.4242C52.6862 12.6126 52.619 12.8248 52.6029 13.0437C52.5868 13.2627 52.6222 13.4825 52.7063 13.6853C52.7903 13.8882 52.9207 14.0685 53.087 14.2119C53.2533 14.3553 53.4509 14.4578 53.6639 14.5111L56.25 15.1608V18.5892Z" fill="#3A3A3A"/>
<path d="M45 11.25C43.8875 11.25 42.7999 11.5799 41.8749 12.198C40.9499 12.8161 40.2289 13.6946 39.8032 14.7224C39.3774 15.7502 39.266 16.8812 39.4831 17.9724C39.7001 19.0635 40.2359 20.0658 41.0225 20.8525C41.8092 21.6391 42.8115 22.1749 43.9026 22.3919C44.9938 22.609 46.1248 22.4976 47.1526 22.0718C48.1804 21.6461 49.0589 20.9251 49.677 20.0001C50.2951 19.0751 50.625 17.9875 50.625 16.875C50.625 15.3832 50.0324 13.9524 48.9775 12.8975C47.9226 11.8426 46.4918 11.25 45 11.25ZM45 19.6875C44.4437 19.6875 43.9 19.5225 43.4375 19.2135C42.9749 18.9045 42.6145 18.4652 42.4016 17.9513C42.1887 17.4374 42.133 16.8719 42.2415 16.3263C42.3501 15.7807 42.6179 15.2796 43.0113 14.8863C43.4046 14.4929 43.9057 14.2251 44.4513 14.1165C44.9969 14.008 45.5624 14.0637 46.0763 14.2766C46.5902 14.4895 47.0295 14.8499 47.3385 15.3125C47.6476 15.775 47.8125 16.3187 47.8125 16.875C47.8125 17.6209 47.5162 18.3363 46.9887 18.8637C46.4613 19.3912 45.7459 19.6875 45 19.6875ZM7.03125 21.0937H14.0625V29.79C13.2428 30.0798 12.5326 30.6158 12.0292 31.3246C11.5257 32.0335 11.2536 32.8806 11.25 33.75V36.1406L8.67375 40.0008C8.53659 40.2067 8.45618 40.4451 8.44062 40.692C8.42507 40.9389 8.47492 41.1856 8.58516 41.407L11.3977 47.032C11.5644 47.3658 11.8569 47.6197 12.2108 47.7379C12.5647 47.856 12.951 47.8287 13.2848 47.662C13.6186 47.4953 13.8725 47.2028 13.9907 46.8489C14.1088 46.495 14.0816 46.1086 13.9148 45.7748L11.4666 40.8825L13.4086 37.9687H17.5289L19.4709 40.8825L17.0227 45.7777C16.8559 46.1115 16.8287 46.4978 16.9468 46.8517C17.065 47.2056 17.3189 47.4981 17.6527 47.6648C17.9865 47.8316 18.3728 47.8588 18.7267 47.7407C19.0806 47.6225 19.3731 47.3686 19.5398 47.0348L22.3523 41.4098C22.4626 41.1884 22.5124 40.9417 22.4969 40.6948C22.4813 40.4479 22.4009 40.2095 22.2638 40.0036L19.6875 36.1406V33.75C19.6839 32.8806 19.4118 32.0335 18.9083 31.3246C18.4049 30.6158 17.6947 30.0798 16.875 29.79V21.0937H27.9436V18.2812H7.03125C6.65829 18.2812 6.3006 18.1331 6.03688 17.8694C5.77316 17.6056 5.625 17.248 5.625 16.875C5.625 16.502 5.77316 16.1444 6.03688 15.8806C6.3006 15.6169 6.65829 15.4687 7.03125 15.4687H28.08V12.6562H7.03125C5.91237 12.6562 4.83931 13.1007 4.04814 13.8919C3.25697 14.6831 2.8125 15.7561 2.8125 16.875C2.8125 17.9939 3.25697 19.0669 4.04814 19.8581C4.83931 20.6493 5.91237 21.0937 7.03125 21.0937ZM16.875 35.1562H14.0625V33.75C14.0625 33.377 14.2107 33.0194 14.4744 32.7556C14.7381 32.4919 15.0958 32.3437 15.4688 32.3437C15.8417 32.3437 16.1994 32.4919 16.4631 32.7556C16.7268 33.0194 16.875 33.377 16.875 33.75V35.1562ZM82.9688 12.6562H61.83V15.4687H82.9688C83.3417 15.4687 83.6994 15.6169 83.9631 15.8806C84.2268 16.1444 84.375 16.502 84.375 16.875C84.375 17.248 84.2268 17.6056 83.9631 17.8694C83.6994 18.1331 83.3417 18.2812 82.9688 18.2812H61.875V21.0937H73.125V29.79C72.3053 30.0798 71.5951 30.6158 71.0917 31.3246C70.5882 32.0335 70.3161 32.8806 70.3125 33.75V36.1406L67.7363 40.005C67.5991 40.2109 67.5187 40.4493 67.5031 40.6962C67.4876 40.9431 67.5374 41.1898 67.6477 41.4112L70.4602 47.0363C70.6269 47.37 70.9194 47.6239 71.2733 47.7421C71.6272 47.8602 72.0135 47.833 72.3473 47.6662C72.6811 47.4995 72.935 47.207 73.0532 46.8531C73.1713 46.4992 73.1441 46.1129 72.9773 45.7791L70.5291 40.8839L72.4711 37.9687H76.5914L78.5334 40.8825L76.0852 45.7777C75.9184 46.1115 75.8912 46.4978 76.0093 46.8517C76.1275 47.2056 76.3814 47.4981 76.7152 47.6648C77.049 47.8316 77.4353 47.8588 77.7892 47.7407C78.1431 47.6225 78.4356 47.3686 78.6023 47.0348L81.4148 41.4098C81.5251 41.1884 81.5749 40.9417 81.5594 40.6948C81.5438 40.4479 81.4634 40.2095 81.3262 40.0036L78.75 36.1406V33.75C78.7464 32.8806 78.4743 32.0335 77.9708 31.3246C77.4674 30.6158 76.7572 30.0798 75.9375 29.79V21.0937H82.9688C84.0876 21.0937 85.1607 20.6493 85.9519 19.8581C86.743 19.0669 87.1875 17.9939 87.1875 16.875C87.1875 15.7561 86.743 14.6831 85.9519 13.8919C85.1607 13.1007 84.0876 12.6562 82.9688 12.6562ZM75.9375 35.1562H73.125V33.75C73.125 33.377 73.2732 33.0194 73.5369 32.7556C73.8006 32.4919 74.1583 32.3437 74.5312 32.3437C74.9042 32.3437 75.2619 32.4919 75.5256 32.7556C75.7893 33.0194 75.9375 33.377 75.9375 33.75V35.1562Z" fill="#3A3A3A"/>
</svg>
