<svg width="20" height="20" viewBox="0 0 20 20" fill="none" xmlns="http://www.w3.org/2000/svg">
<path fill-rule="evenodd" clip-rule="evenodd" d="M10 3.25C6.27329 3.25 3.25 6.27329 3.25 10C3.25 13.7267 6.27329 16.75 10 16.75C13.7267 16.75 16.75 13.7267 16.75 10C16.75 6.27329 13.7267 3.25 10 3.25ZM4.75 10C4.75 7.10171 7.10171 4.75 10 4.75C12.8983 4.75 15.25 7.10171 15.25 10C15.25 12.8983 12.8983 15.25 10 15.25C7.10171 15.25 4.75 12.8983 4.75 10ZM10.75 6C10.75 5.58579 10.4142 5.25 10 5.25C9.58579 5.25 9.25 5.58579 9.25 6V11C9.25 11.4142 9.58579 11.75 10 11.75H13C13.4142 11.75 13.75 11.4142 13.75 11C13.75 10.5858 13.4142 10.25 13 10.25H10.75V6Z" fill="#252525"/>
</svg>
