<svg width="129" height="93" viewBox="0 0 129 93" fill="none" xmlns="http://www.w3.org/2000/svg">
<path d="M79.3279 90.5657H6.04412C3.53447 90.5657 1.5 88.5313 1.5 86.0216V29.1144C1.5 27.6348 2.22038 26.2479 3.43083 25.3969L36.2491 2.32664C37.7633 1.26225 39.7717 1.22254 41.3267 2.22624L77.248 25.4118C78.5446 26.2487 79.3279 27.6865 79.3279 29.2297V54.787M79.3279 90.5657V54.787M79.3279 90.5657H122.366C124.875 90.5657 126.91 88.5313 126.91 86.0216V70.8297C126.91 68.766 125.519 66.9615 123.524 66.4356L79.3279 54.787" stroke="#3A3A3A" stroke-width="3" stroke-linejoin="round"/>
<mask id="path-2-inside-1_1843_359" fill="white">
<path d="M71.1428 32.7337L61.9045 28.1684C61.5832 28.0054 61.2619 28.0054 60.9405 28.25C60.6192 28.413 60.4585 28.7391 60.4585 29.1467V38.1957V41.5381C58.5306 42.0273 57.0846 43.7392 57.0846 45.8588C57.0846 47.9784 58.5306 49.7719 60.4585 50.1795V57.1089C58.5306 57.5981 57.0846 59.31 57.0846 61.4296C57.0846 63.5492 58.5306 65.3427 60.4585 65.7503V72.6797C58.8519 73.0873 57.5666 74.3917 57.1649 76.0221H51.3007C50.8187 74.0656 49.1317 72.5982 47.043 72.5982C44.9544 72.5982 43.1871 74.0656 42.7854 76.0221H36.9211C36.4392 74.0656 34.7522 72.5982 32.6635 72.5982C30.5749 72.5982 28.8076 74.0656 28.4059 76.0221H22.5416C22.14 74.3917 20.8547 73.0873 19.248 72.6797V65.7503C20.8547 65.3427 22.14 64.0383 22.5416 62.4079H28.2452C28.7272 64.3644 30.4142 65.8318 32.5029 65.8318C34.5915 65.8318 36.3588 64.3644 36.7605 62.4079H42.7051C43.1871 64.3644 44.8741 65.8318 46.9627 65.8318C49.3727 65.8318 51.381 63.7938 51.381 61.3481C51.381 59.2285 49.935 57.435 48.007 57.0274V50.098C49.935 49.6089 51.381 47.8969 51.381 45.7773C51.381 43.3316 49.3727 41.2936 46.9627 41.2936C44.8741 41.2936 43.1067 42.761 42.7051 44.7175H36.8408C36.3588 42.761 34.6718 41.2936 32.5832 41.2936C30.4946 41.2936 28.7272 42.761 28.3256 44.7175H22.4613C22.0596 43.0871 20.7743 41.7827 19.1677 41.3751V38.1957L27.8436 33.9565C28.1649 33.7935 28.4059 33.4674 28.4059 33.0598C28.4059 32.6522 28.1649 32.3261 27.8436 32.163L18.6054 27.6793C18.284 27.5163 17.9627 27.5163 17.6414 27.7608C17.32 27.9239 17.1594 28.25 17.1594 28.6576V37.7066V41.5381C15.2314 42.0273 13.7854 43.7392 13.7854 45.8588C13.7854 48.3045 15.7937 50.3426 18.2037 50.3426C20.2923 50.3426 22.0596 48.8752 22.4613 46.9186H28.2452C28.7272 48.8752 30.4142 50.3426 32.5029 50.3426C34.5915 50.3426 36.3588 48.8752 36.7605 46.9186H42.7051C43.1067 48.5491 44.3921 49.8534 45.9987 50.261V57.1905C44.3921 57.5981 43.1067 58.9024 42.7051 60.5329H36.8408C36.4392 58.4948 34.6718 57.0274 32.5832 57.0274C30.4946 57.0274 28.7272 58.4948 28.3256 60.4514H22.4613C21.9793 58.4948 20.212 57.0274 18.1234 57.0274C15.7134 57.0274 13.7051 59.0655 13.7051 61.5111C13.7051 63.6307 15.1511 65.4242 17.079 65.8318V72.7612C15.1511 73.2504 13.7051 74.9624 13.7051 77.0819C13.7051 79.5276 15.7134 81.5657 18.1234 81.5657C20.212 81.5657 21.9793 80.0983 22.381 78.1417H28.2452C28.7272 80.0983 30.4142 81.5657 32.5029 81.5657C34.5915 81.5657 36.3588 80.0983 36.7605 78.1417H42.7051C43.1871 80.0983 44.8741 81.5657 46.9627 81.5657C49.0513 81.5657 50.8187 80.0983 51.2203 78.1417H57.1649C57.6469 80.0983 59.3339 81.5657 61.4225 81.5657C63.8325 81.5657 65.8408 79.5276 65.8408 77.0819C65.8408 74.9624 64.3948 73.1689 62.4669 72.7612V65.8318C64.3948 65.3427 65.8408 63.6307 65.8408 61.5111C65.8408 59.3916 64.3948 57.5981 62.4669 57.1905V50.261C64.3948 49.7719 65.8408 48.0599 65.8408 45.9403C65.8408 43.8208 64.3948 42.0273 62.4669 41.6197V38.9294L71.1428 34.6902C71.4641 34.5272 71.7051 34.2011 71.7051 33.7935C71.7051 33.3859 71.4641 32.8967 71.1428 32.7337ZM19.1677 30.288L25.1123 33.2228L19.1677 36.1576V30.288ZM20.2923 46.9186C19.8907 47.7338 19.0873 48.3045 18.1234 48.3045C16.838 48.3045 15.7134 47.2447 15.7134 45.8588C15.7134 44.8806 16.2757 44.0653 17.079 43.6577C17.4004 43.4947 17.7217 43.4131 18.043 43.4131C18.3644 43.4131 18.766 43.4947 19.007 43.6577C19.489 43.9023 19.971 44.3099 20.212 44.8806C20.3727 45.2066 20.453 45.5327 20.453 45.8588C20.5333 46.2664 20.453 46.5925 20.2923 46.9186ZM34.7522 46.9186C34.3505 47.7338 33.5472 48.3045 32.5832 48.3045C31.6192 48.3045 30.8159 47.7338 30.4142 46.9186C30.2536 46.5925 30.1732 46.2664 30.1732 45.9403C30.1732 45.6143 30.2536 45.2066 30.4142 44.9621C30.8159 44.1469 31.6192 43.5762 32.5832 43.5762C33.5472 43.5762 34.3505 44.1469 34.7522 44.9621C34.9128 45.2882 34.9932 45.6143 34.9932 45.9403C34.9932 46.2664 34.9128 46.5925 34.7522 46.9186ZM44.8741 46.9186C44.7134 46.5925 44.6331 46.2664 44.6331 45.9403C44.6331 45.6143 44.7134 45.2066 44.8741 44.9621C45.2757 44.1469 46.079 43.5762 47.043 43.5762C48.3284 43.5762 49.453 44.636 49.453 46.0219C49.453 47.0001 48.8907 47.8154 48.0874 48.223C47.766 48.386 47.4447 48.4675 47.1234 48.4675C46.802 48.4675 46.4004 48.386 46.1594 48.223C45.5167 47.8154 45.1151 47.4077 44.8741 46.9186ZM44.8741 60.4514C45.1151 59.9622 45.5167 59.4731 46.079 59.2285C46.4004 59.0655 46.7217 58.9839 47.043 58.9839C47.3644 58.9839 47.766 59.0655 48.007 59.2285C48.8103 59.6361 49.3727 60.4514 49.3727 61.4296C49.3727 62.734 48.3284 63.8753 46.9627 63.8753C45.9987 63.8753 45.1954 63.3046 44.7937 62.4894C44.6331 62.1633 44.5527 61.8372 44.5527 61.5111C44.6331 61.1035 44.7134 60.7774 44.8741 60.4514ZM30.4142 60.4514C30.8159 59.6361 31.6192 59.0655 32.5832 59.0655C33.5472 59.0655 34.3505 59.6361 34.7522 60.4514C34.9128 60.7774 34.9932 61.1035 34.9932 61.4296C34.9932 61.7557 34.9128 62.1633 34.7522 62.4079C34.3505 63.2231 33.5472 63.7938 32.5832 63.7938C31.6192 63.7938 30.8159 63.2231 30.4142 62.4079C30.2536 62.0818 30.1732 61.7557 30.1732 61.4296C30.1732 61.1035 30.2536 60.7774 30.4142 60.4514ZM15.7134 61.4296C15.7134 60.1253 16.7577 58.9839 18.1234 58.9839C19.0873 58.9839 19.8907 59.5546 20.2923 60.3698C20.453 60.6959 20.5333 61.022 20.5333 61.3481C20.5333 61.6742 20.453 62.0818 20.2923 62.3264C20.0513 62.8155 19.6497 63.3046 19.0874 63.5492C18.766 63.7122 18.4447 63.7938 18.1234 63.7938C17.802 63.7938 17.4004 63.7122 17.1594 63.5492C16.2757 63.3046 15.7134 62.4894 15.7134 61.4296ZM20.2923 78.0602C19.8907 78.8754 19.0873 79.4461 18.1234 79.4461C16.838 79.4461 15.7134 78.3863 15.7134 77.0004C15.7134 76.0221 16.2757 75.2069 17.079 74.7993C17.4004 74.6363 17.7217 74.5547 18.043 74.5547C18.3644 74.5547 18.766 74.6363 19.007 74.7993C19.489 75.0439 19.971 75.4515 20.212 76.0221C20.3727 76.3482 20.453 76.6743 20.453 77.0004C20.453 77.3265 20.453 77.8156 20.2923 78.0602ZM34.7522 78.0602C34.3505 78.8754 33.5472 79.4461 32.5832 79.4461C31.6192 79.4461 30.8159 78.8754 30.4142 78.0602C30.2536 77.7341 30.1732 77.408 30.1732 77.0819C30.1732 76.7558 30.2536 76.3482 30.4142 76.1037C30.8159 75.2884 31.6192 74.7178 32.5832 74.7178C33.5472 74.7178 34.3505 75.2884 34.7522 76.1037C34.9128 76.4298 34.9932 76.7558 34.9932 77.0819C34.9932 77.408 34.9128 77.8156 34.7522 78.0602ZM49.212 78.0602C48.8103 78.8754 48.007 79.4461 47.043 79.4461C46.079 79.4461 45.2757 78.8754 44.8741 78.0602C44.7134 77.7341 44.6331 77.408 44.6331 77.0819C44.6331 76.7558 44.7134 76.3482 44.8741 76.1037C45.2757 75.2884 46.079 74.7178 47.043 74.7178C48.007 74.7178 48.8103 75.2884 49.212 76.1037C49.3727 76.4298 49.453 76.7558 49.453 77.0819C49.453 77.408 49.3727 77.8156 49.212 78.0602ZM63.8325 77.0819C63.8325 78.3863 62.7882 79.5276 61.4225 79.5276C60.4585 79.5276 59.6552 78.957 59.2536 78.1417C59.0929 77.8156 59.0126 77.4895 59.0126 77.1635C59.0126 76.8374 59.0929 76.4298 59.2536 76.1852C59.4946 75.6961 59.8962 75.2069 60.4585 74.9624C60.7799 74.7993 61.1012 74.7178 61.4225 74.7178C61.7439 74.7178 62.1455 74.7993 62.3865 74.9624C63.2702 75.2884 63.8325 76.1037 63.8325 77.0819ZM63.8325 61.4296C63.8325 62.4079 63.2702 63.2231 62.4669 63.6307C62.1455 63.7938 61.8242 63.8753 61.5029 63.8753C61.1815 63.8753 60.7799 63.7938 60.5389 63.6307C59.7355 63.2231 59.1732 62.4079 59.1732 61.4296C59.1732 60.4514 59.7355 59.6361 60.5389 59.2285C60.8602 59.0655 61.1815 58.9839 61.5029 58.9839C61.8242 58.9839 62.2259 59.0655 62.4669 59.2285C63.2702 59.6361 63.8325 60.4514 63.8325 61.4296ZM63.8325 45.8588C63.8325 46.8371 63.2702 47.6523 62.4669 48.0599C62.1455 48.223 61.8242 48.3045 61.5029 48.3045C61.1815 48.3045 60.7799 48.223 60.5389 48.0599C59.7355 47.6523 59.1732 46.8371 59.1732 45.8588C59.1732 44.8806 59.7355 44.0653 60.5389 43.6577C60.8602 43.4947 61.1815 43.4131 61.5029 43.4131C61.8242 43.4131 62.2259 43.4947 62.4669 43.6577C63.2702 44.0653 63.8325 44.8806 63.8325 45.8588ZM62.4669 36.5653V30.7772L68.4115 33.712L62.4669 36.5653Z"/>
</mask>
<path d="M71.1428 32.7337L61.9045 28.1684C61.5832 28.0054 61.2619 28.0054 60.9405 28.25C60.6192 28.413 60.4585 28.7391 60.4585 29.1467V38.1957V41.5381C58.5306 42.0273 57.0846 43.7392 57.0846 45.8588C57.0846 47.9784 58.5306 49.7719 60.4585 50.1795V57.1089C58.5306 57.5981 57.0846 59.31 57.0846 61.4296C57.0846 63.5492 58.5306 65.3427 60.4585 65.7503V72.6797C58.8519 73.0873 57.5666 74.3917 57.1649 76.0221H51.3007C50.8187 74.0656 49.1317 72.5982 47.043 72.5982C44.9544 72.5982 43.1871 74.0656 42.7854 76.0221H36.9211C36.4392 74.0656 34.7522 72.5982 32.6635 72.5982C30.5749 72.5982 28.8076 74.0656 28.4059 76.0221H22.5416C22.14 74.3917 20.8547 73.0873 19.248 72.6797V65.7503C20.8547 65.3427 22.14 64.0383 22.5416 62.4079H28.2452C28.7272 64.3644 30.4142 65.8318 32.5029 65.8318C34.5915 65.8318 36.3588 64.3644 36.7605 62.4079H42.7051C43.1871 64.3644 44.8741 65.8318 46.9627 65.8318C49.3727 65.8318 51.381 63.7938 51.381 61.3481C51.381 59.2285 49.935 57.435 48.007 57.0274V50.098C49.935 49.6089 51.381 47.8969 51.381 45.7773C51.381 43.3316 49.3727 41.2936 46.9627 41.2936C44.8741 41.2936 43.1067 42.761 42.7051 44.7175H36.8408C36.3588 42.761 34.6718 41.2936 32.5832 41.2936C30.4946 41.2936 28.7272 42.761 28.3256 44.7175H22.4613C22.0596 43.0871 20.7743 41.7827 19.1677 41.3751V38.1957L27.8436 33.9565C28.1649 33.7935 28.4059 33.4674 28.4059 33.0598C28.4059 32.6522 28.1649 32.3261 27.8436 32.163L18.6054 27.6793C18.284 27.5163 17.9627 27.5163 17.6414 27.7608C17.32 27.9239 17.1594 28.25 17.1594 28.6576V37.7066V41.5381C15.2314 42.0273 13.7854 43.7392 13.7854 45.8588C13.7854 48.3045 15.7937 50.3426 18.2037 50.3426C20.2923 50.3426 22.0596 48.8752 22.4613 46.9186H28.2452C28.7272 48.8752 30.4142 50.3426 32.5029 50.3426C34.5915 50.3426 36.3588 48.8752 36.7605 46.9186H42.7051C43.1067 48.5491 44.3921 49.8534 45.9987 50.261V57.1905C44.3921 57.5981 43.1067 58.9024 42.7051 60.5329H36.8408C36.4392 58.4948 34.6718 57.0274 32.5832 57.0274C30.4946 57.0274 28.7272 58.4948 28.3256 60.4514H22.4613C21.9793 58.4948 20.212 57.0274 18.1234 57.0274C15.7134 57.0274 13.7051 59.0655 13.7051 61.5111C13.7051 63.6307 15.1511 65.4242 17.079 65.8318V72.7612C15.1511 73.2504 13.7051 74.9624 13.7051 77.0819C13.7051 79.5276 15.7134 81.5657 18.1234 81.5657C20.212 81.5657 21.9793 80.0983 22.381 78.1417H28.2452C28.7272 80.0983 30.4142 81.5657 32.5029 81.5657C34.5915 81.5657 36.3588 80.0983 36.7605 78.1417H42.7051C43.1871 80.0983 44.8741 81.5657 46.9627 81.5657C49.0513 81.5657 50.8187 80.0983 51.2203 78.1417H57.1649C57.6469 80.0983 59.3339 81.5657 61.4225 81.5657C63.8325 81.5657 65.8408 79.5276 65.8408 77.0819C65.8408 74.9624 64.3948 73.1689 62.4669 72.7612V65.8318C64.3948 65.3427 65.8408 63.6307 65.8408 61.5111C65.8408 59.3916 64.3948 57.5981 62.4669 57.1905V50.261C64.3948 49.7719 65.8408 48.0599 65.8408 45.9403C65.8408 43.8208 64.3948 42.0273 62.4669 41.6197V38.9294L71.1428 34.6902C71.4641 34.5272 71.7051 34.2011 71.7051 33.7935C71.7051 33.3859 71.4641 32.8967 71.1428 32.7337ZM19.1677 30.288L25.1123 33.2228L19.1677 36.1576V30.288ZM20.2923 46.9186C19.8907 47.7338 19.0873 48.3045 18.1234 48.3045C16.838 48.3045 15.7134 47.2447 15.7134 45.8588C15.7134 44.8806 16.2757 44.0653 17.079 43.6577C17.4004 43.4947 17.7217 43.4131 18.043 43.4131C18.3644 43.4131 18.766 43.4947 19.007 43.6577C19.489 43.9023 19.971 44.3099 20.212 44.8806C20.3727 45.2066 20.453 45.5327 20.453 45.8588C20.5333 46.2664 20.453 46.5925 20.2923 46.9186ZM34.7522 46.9186C34.3505 47.7338 33.5472 48.3045 32.5832 48.3045C31.6192 48.3045 30.8159 47.7338 30.4142 46.9186C30.2536 46.5925 30.1732 46.2664 30.1732 45.9403C30.1732 45.6143 30.2536 45.2066 30.4142 44.9621C30.8159 44.1469 31.6192 43.5762 32.5832 43.5762C33.5472 43.5762 34.3505 44.1469 34.7522 44.9621C34.9128 45.2882 34.9932 45.6143 34.9932 45.9403C34.9932 46.2664 34.9128 46.5925 34.7522 46.9186ZM44.8741 46.9186C44.7134 46.5925 44.6331 46.2664 44.6331 45.9403C44.6331 45.6143 44.7134 45.2066 44.8741 44.9621C45.2757 44.1469 46.079 43.5762 47.043 43.5762C48.3284 43.5762 49.453 44.636 49.453 46.0219C49.453 47.0001 48.8907 47.8154 48.0874 48.223C47.766 48.386 47.4447 48.4675 47.1234 48.4675C46.802 48.4675 46.4004 48.386 46.1594 48.223C45.5167 47.8154 45.1151 47.4077 44.8741 46.9186ZM44.8741 60.4514C45.1151 59.9622 45.5167 59.4731 46.079 59.2285C46.4004 59.0655 46.7217 58.9839 47.043 58.9839C47.3644 58.9839 47.766 59.0655 48.007 59.2285C48.8103 59.6361 49.3727 60.4514 49.3727 61.4296C49.3727 62.734 48.3284 63.8753 46.9627 63.8753C45.9987 63.8753 45.1954 63.3046 44.7937 62.4894C44.6331 62.1633 44.5527 61.8372 44.5527 61.5111C44.6331 61.1035 44.7134 60.7774 44.8741 60.4514ZM30.4142 60.4514C30.8159 59.6361 31.6192 59.0655 32.5832 59.0655C33.5472 59.0655 34.3505 59.6361 34.7522 60.4514C34.9128 60.7774 34.9932 61.1035 34.9932 61.4296C34.9932 61.7557 34.9128 62.1633 34.7522 62.4079C34.3505 63.2231 33.5472 63.7938 32.5832 63.7938C31.6192 63.7938 30.8159 63.2231 30.4142 62.4079C30.2536 62.0818 30.1732 61.7557 30.1732 61.4296C30.1732 61.1035 30.2536 60.7774 30.4142 60.4514ZM15.7134 61.4296C15.7134 60.1253 16.7577 58.9839 18.1234 58.9839C19.0873 58.9839 19.8907 59.5546 20.2923 60.3698C20.453 60.6959 20.5333 61.022 20.5333 61.3481C20.5333 61.6742 20.453 62.0818 20.2923 62.3264C20.0513 62.8155 19.6497 63.3046 19.0874 63.5492C18.766 63.7122 18.4447 63.7938 18.1234 63.7938C17.802 63.7938 17.4004 63.7122 17.1594 63.5492C16.2757 63.3046 15.7134 62.4894 15.7134 61.4296ZM20.2923 78.0602C19.8907 78.8754 19.0873 79.4461 18.1234 79.4461C16.838 79.4461 15.7134 78.3863 15.7134 77.0004C15.7134 76.0221 16.2757 75.2069 17.079 74.7993C17.4004 74.6363 17.7217 74.5547 18.043 74.5547C18.3644 74.5547 18.766 74.6363 19.007 74.7993C19.489 75.0439 19.971 75.4515 20.212 76.0221C20.3727 76.3482 20.453 76.6743 20.453 77.0004C20.453 77.3265 20.453 77.8156 20.2923 78.0602ZM34.7522 78.0602C34.3505 78.8754 33.5472 79.4461 32.5832 79.4461C31.6192 79.4461 30.8159 78.8754 30.4142 78.0602C30.2536 77.7341 30.1732 77.408 30.1732 77.0819C30.1732 76.7558 30.2536 76.3482 30.4142 76.1037C30.8159 75.2884 31.6192 74.7178 32.5832 74.7178C33.5472 74.7178 34.3505 75.2884 34.7522 76.1037C34.9128 76.4298 34.9932 76.7558 34.9932 77.0819C34.9932 77.408 34.9128 77.8156 34.7522 78.0602ZM49.212 78.0602C48.8103 78.8754 48.007 79.4461 47.043 79.4461C46.079 79.4461 45.2757 78.8754 44.8741 78.0602C44.7134 77.7341 44.6331 77.408 44.6331 77.0819C44.6331 76.7558 44.7134 76.3482 44.8741 76.1037C45.2757 75.2884 46.079 74.7178 47.043 74.7178C48.007 74.7178 48.8103 75.2884 49.212 76.1037C49.3727 76.4298 49.453 76.7558 49.453 77.0819C49.453 77.408 49.3727 77.8156 49.212 78.0602ZM63.8325 77.0819C63.8325 78.3863 62.7882 79.5276 61.4225 79.5276C60.4585 79.5276 59.6552 78.957 59.2536 78.1417C59.0929 77.8156 59.0126 77.4895 59.0126 77.1635C59.0126 76.8374 59.0929 76.4298 59.2536 76.1852C59.4946 75.6961 59.8962 75.2069 60.4585 74.9624C60.7799 74.7993 61.1012 74.7178 61.4225 74.7178C61.7439 74.7178 62.1455 74.7993 62.3865 74.9624C63.2702 75.2884 63.8325 76.1037 63.8325 77.0819ZM63.8325 61.4296C63.8325 62.4079 63.2702 63.2231 62.4669 63.6307C62.1455 63.7938 61.8242 63.8753 61.5029 63.8753C61.1815 63.8753 60.7799 63.7938 60.5389 63.6307C59.7355 63.2231 59.1732 62.4079 59.1732 61.4296C59.1732 60.4514 59.7355 59.6361 60.5389 59.2285C60.8602 59.0655 61.1815 58.9839 61.5029 58.9839C61.8242 58.9839 62.2259 59.0655 62.4669 59.2285C63.2702 59.6361 63.8325 60.4514 63.8325 61.4296ZM63.8325 45.8588C63.8325 46.8371 63.2702 47.6523 62.4669 48.0599C62.1455 48.223 61.8242 48.3045 61.5029 48.3045C61.1815 48.3045 60.7799 48.223 60.5389 48.0599C59.7355 47.6523 59.1732 46.8371 59.1732 45.8588C59.1732 44.8806 59.7355 44.0653 60.5389 43.6577C60.8602 43.4947 61.1815 43.4131 61.5029 43.4131C61.8242 43.4131 62.2259 43.4947 62.4669 43.6577C63.2702 44.0653 63.8325 44.8806 63.8325 45.8588ZM62.4669 36.5653V30.7772L68.4115 33.712L62.4669 36.5653Z" fill="#3A3A3A" stroke="#3A3A3A" stroke-width="1.81765" mask="url(#path-2-inside-1_1843_359)"/>
</svg>
